<?xml version="1.0" encoding="UTF-8"?>
<svg id="Layer_1" data-name="Layer 1" xmlns="http://www.w3.org/2000/svg" viewBox="0 0 424.35 723.38">
  <path d="M203.08,310.79c19.99-5.01,40-2.4,59,4.98l-11.01-38.94c-1.87-.2-3.11,1.05-4.48,2.01-10.43,7.36-20.22,18.62-30.77,26.2-7.53,3.32-9.34-6.51-6.16-12.15,4.03-7.15,24.49-21.18,31.89-27.07,3.67-2.92,11.61-12.23,15.94-11.03l18.52,64.54,64.06-.55-26.87,64.2c6.32,6.66,12.7,13.38,19.34,19.71,3.29,3.13,28.35,23.11,25.52,26.92l-61,24,4,52.91c1.73.45,2-.72,3-1.49,2.42-1.86,6.14-5.3,8.52-7.47,62-56.73,107.66-118.44,88.01-207.8-12.56-57.09-76.88-105.64-134.89-79.72-5.03,2.25-15.99,10.68-20.26,10.83-2.85.1-9-6.01-7.87-9.02,1.88-4.98,24.26-13.92,29.97-15.96,94.9-33.9,161.28,46.48,156.56,136.39-3.04,57.95-32.19,105.11-70.53,146.29-35.31,37.92-83.46,71.76-105.37,119.48-16.42,35.77-22.59,60.01-49.63,91.26-12.71,14.69-43.9,46.39-64.03,28.97-17.17-14.86-21.72-67.7-20.47-89.4,2.16-37.5,17.69-71,26.77-106.75-14.45-15.18-31.36-27.86-46.79-42.06-60.06-55.25-113.37-112.31-87.25-201.02,17.21-58.44,67-88.99,127.47-78.84,3.17.53,25.78,5.76,26.68,6.8,2.54,2.94-2.26,11.1-6.5,11.6-5.12.61-18.07-5.86-25.01-6.59-36.56-3.81-74.3,17.99-93.18,48.51-37.5,60.61-4.69,140.24,44.8,183.07-6.22-13.64-12.03-27.49-13.86-42.57-8.84-72.75,55.8-120.67,92.26-174.26,3.36-4.94,9.95-13.67,10.55-19.48.46-4.44-1.6-12.61-2.42-17.39-8.09-47.48-29.94-101.24-18.87-149.63,11.15-48.69,63.18-54.26,86.86-11.16,34.67,63.11-7.36,141.44-44.32,193.5l11.81,88.16ZM182.08,190.94c12.92-14.95,24.08-33.54,31.48-51.95,11.66-29.01,20.3-71.72,4.68-100.53-15.62-28.82-42.74-21.85-49.51,8.82-4.58,20.72-2.13,46.12.48,67.12,3.19,25.65,9.59,50.9,12.87,76.54ZM188.07,297.8l-11.49-56.92-40.5,45.93,52,10.99ZM140.99,346.64l-10.41-54.82c-30.92,32.92-58.96,72.96-47.83,120.67,5.41,23.17,19.33,44.35,35.83,61.09l18.44-57.83-50.92-32.55,54.9-36.56ZM191.99,311.87c-1.32-1.94-40.57-6.88-45.91-10.06,1.83,12.04,6.98,26.71,7.89,38.57,1.59,20.88-31.65,32.33-45.88,42.34-.18,1.22-.36,1.29.62,2.04,5.73,4.47,17.23,8.44,24.05,12.75,11.7,7.39,19.23,13.45,16.04,28.34-2.9,13.54-10.04,26.08-12.7,39.73l40.45-6.94c69.7,39.68,158.23-45.2,102.52-112.37-52.94-63.83-154.33,8.82-105.8,71.71,24.75,32.06,86.45,19.97,78.38-24.35-4.33-23.76-39.26-26.16-47.04-4.94-.69,1.88-2.72,12.43-3.52,12.98-3.49,2.39-5.73-6.09-5.98-8.48-3.94-36.96,56.81-48.31,68.5-5.5,13.85,50.69-50.28,82.29-88.42,52.36-36.71-28.81-36.4-88.3,2.18-115.5,2.94-2.07,17.63-8.29,14.65-12.67ZM320.07,332.76h-35l11.81,16.67,7.69,16.3,15.5-32.97ZM336.07,425.63c.74-1.02-6.19-8.72-7.47-10-3.51-3.53-9.21-8.64-13.05-11.93-.85-.73-6.86-5.76-7.47-5.02-.97,16.62-7.29,32.6-17,45.93l17.33-9.15,27.67-9.83ZM287.07,494.55c-1.05-13.67-3.86-27.16-3-40.95-24.63,23.4-59.96,33.99-92.98,22.97l14,37.95c1.96,1.45,23.53-32.42,33.69-34.74,11.19-2.55,46.24,16.82,48.29,14.77ZM200.06,532.51l-24.98-58.45-47.01,6.53,71.99,51.92ZM295.07,511.54l-53.37-18.79-39.62,42.25c10.55,10.27,21.34,20.89,27.48,34.45l65.51-57.91ZM147.43,689.95c14.58,14.26,35.31-5.23,45.16-16.61,18.14-20.96,37.04-65.48,28-92.91-2.97-9.01-29.9-29.49-38.6-35.35-3.26-2.2-20.28-13.23-22.6-13.45-1.4-.13-1.53.59-2.19,1.5-2.6,3.62-7.38,14.17-9.3,18.68-13.35,31.29-27.09,112.12-.47,138.14Z"/>
</svg>